<?xml version="1.0" encoding="iso-8859-1"?>
<!-- Generator: Adobe Illustrator 19.0.0, SVG Export Plug-In . SVG Version: 6.00 Build 0)  -->
<svg version="1.1" id="Layer_1" xmlns="http://www.w3.org/2000/svg" xmlns:xlink="http://www.w3.org/1999/xlink" x="0px" y="0px"
	 viewBox="0 0 511.999 511.999" style="enable-background:new 0 0 511.999 511.999;" xml:space="preserve">
<path style="fill:#CFDCE5;" d="M336.32,241.292V126.206c0-44.239-35.992-80.243-80.231-80.243
	c-44.252,0-80.243,36.004-80.243,80.243v115.086h-45.963V126.206C129.883,56.624,186.494,0,256.09,0
	c69.582,0,126.193,56.624,126.193,126.206v115.086H336.32z"/>
<path style="fill:#FF6F52;" d="M398.896,240.066H113.104c-11.773,0-21.317,9.545-21.317,21.317v229.298
	c0,11.773,9.545,21.317,21.317,21.317h285.791c11.773,0,21.317-9.545,21.317-21.317V261.385
	C420.213,249.611,410.668,240.066,398.896,240.066z"/>
<rect x="319.312" y="320.565" style="fill:#CFDCE5;" width="52.862" height="120.476"/>
<rect x="319.312" y="402.317" style="fill:#CAD6DD;" width="52.862" height="38.725"/>
<g>
	<rect x="319.312" y="353.143" style="fill:#C1CED6;" width="52.862" height="12.294"/>
	<rect x="319.312" y="396.171" style="fill:#C1CED6;" width="52.862" height="12.294"/>
</g>
<path style="fill:#E25749;" d="M378.32,447.194h-65.156v-132.77h65.156V447.194z M325.458,434.9h40.569V326.717h-40.569V434.9z"/>
<rect x="139.826" y="320.565" style="fill:#CFDCE5;" width="52.862" height="120.476"/>
<rect x="139.826" y="402.317" style="fill:#CAD6DD;" width="52.862" height="38.725"/>
<g>
	<rect x="139.826" y="353.143" style="fill:#C1CED6;" width="52.862" height="12.294"/>
	<rect x="139.826" y="396.171" style="fill:#C1CED6;" width="52.862" height="12.294"/>
</g>
<path style="fill:#E25749;" d="M198.835,447.194H133.68v-132.77h65.156V447.194z M145.973,434.9h40.569V326.717h-40.569
	C145.973,326.717,145.973,434.9,145.973,434.9z"/>
<rect x="229.569" y="320.565" style="fill:#CFDCE5;" width="52.862" height="120.476"/>
<rect x="229.569" y="402.317" style="fill:#CAD6DD;" width="52.862" height="38.725"/>
<g>
	<rect x="229.569" y="353.143" style="fill:#C1CED6;" width="52.862" height="12.294"/>
	<rect x="229.569" y="396.171" style="fill:#C1CED6;" width="52.862" height="12.294"/>
</g>
<path style="fill:#E25749;" d="M288.578,447.194h-65.156v-132.77h65.156V447.194z M235.716,434.9h40.569V326.717h-40.569V434.9z"/>
<g>
</g>
<g>
</g>
<g>
</g>
<g>
</g>
<g>
</g>
<g>
</g>
<g>
</g>
<g>
</g>
<g>
</g>
<g>
</g>
<g>
</g>
<g>
</g>
<g>
</g>
<g>
</g>
<g>
</g>
</svg>
