<?xml version="1.0" encoding="utf-8"?>
<!-- Generator: Adobe Illustrator 25.2.1, SVG Export Plug-In . SVG Version: 6.00 Build 0)  -->
<svg version="1.1" id="Camada_1" xmlns="http://www.w3.org/2000/svg" xmlns:xlink="http://www.w3.org/1999/xlink" x="0px" y="0px"
	 viewBox="0 0 445.83 250" style="enable-background:new 0 0 445.83 250;" xml:space="preserve">
<style type="text/css">
	.st0{fill:#FFFFFF;}
	.st1{fill:#D7DB33;}
	.st2{fill:url(#SVGID_1_);}
</style>
<g>
	<g>
		<path class="st0" d="M119.6,156.13c-0.94-3.24-2.34-6.21-4.21-8.89c-3.77-5.41-8.82-9.17-15-11.17
			c-5.58-1.81-13.19-2.69-23.24-2.69H20.84v109.69h42.32v-38.85c0.19,0.11,0.38,0.22,0.57,0.35c0.2,0.16,1.43,1.25,3.68,5.5
			l17.84,33h76.61V133.38H119.6V156.13z M78.02,170.9c-0.38,0.5-0.74,0.73-1.32,0.84l-0.14,0.03c-5.02,1.13-6.44,1.19-6.68,1.19
			h-6.73v-7.86h7.26c5.92,0,7.38,1.11,7.39,1.12c0.26,0.22,0.87,0.74,0.87,2.68C78.68,169.71,78.48,170.31,78.02,170.9z
			 M119.6,217.55l-5.92-11.47c-0.92-1.85-2.49-4.12-4.92-7.15c-1.28-1.59-2.38-2.87-3.36-3.89c4.75-2.93,8.55-6.79,11.31-11.48
			c1.24-2.1,2.19-4.39,2.9-6.82V217.55z M420.21,187.73c-3.17-5.26-8.18-9.66-14.87-13.08c-0.7-0.36-1.44-0.71-2.23-1.06l19.4-1.14
			l-0.78-6.35c-1.45-11.83-6.22-20.68-14.18-26.32c-7.56-5.35-18.33-8.07-32.02-8.07c-11.11,0-19.76,1.42-26.43,4.33
			c-6.91,3.02-12.2,7.31-15.75,12.75c-3.54,5.43-5.34,11.32-5.34,17.5c0,9.42,3.57,17.29,10.58,23.38
			c3.34,2.92,7.66,5.49,13.04,7.73l-25.33,1.59l-24.65-65.61h-41.24l-11.43,30.41v-30.41h-86.63v109.69h42.32v-39.92h29.52
			l-15,39.92h43.97l4.76-16.13h25.33l4.89,16.13h44.73l-2.57-6.85c7.8,5.72,19.44,8.51,35.43,8.51c10.25,0,18.98-1.55,25.94-4.61
			c7.27-3.19,13.04-7.98,17.13-14.23c4.1-6.25,6.18-13.19,6.18-20.61C424.97,198.87,423.37,192.96,420.21,187.73z M242.52,180.99
			v-9.56h-37.85v-5.06h43.34L242.52,180.99z M278.08,193.82l2.61-8.58l2.63,8.58H278.08z M368.45,162.74
			c0.23-0.19,1.22-0.83,4.08-0.83c2.81,0,4.9,0.55,6.21,1.62c0.89,0.73,1.51,1.89,1.95,3.13c-1.67-0.39-3.4-0.78-5.2-1.17
			c-5.55-1.15-7.15-2.08-7.39-2.23l-0.07-0.06C368.09,163.08,368.22,162.93,368.45,162.74z M382.22,211.98
			c-1.49,1.29-4.1,1.56-6.03,1.56c-5.15,0-7.38-2.08-8.6-3.63c-0.85-1.08-1.98-3.31-2.58-7.76l-0.05-0.39
			c1.49,0.38,3.02,0.75,4.61,1.11c10.28,2.26,12.51,4.07,12.73,4.26c1.35,1.21,1.35,2,1.35,2.34
			C383.65,209.89,383.65,210.74,382.22,211.98z M174.02,85.86h10.53c12.9,0,22.98-2.97,29.99-8.84l-16.95,45.09h43.97l4.76-16.13
			h25.33l4.89,16.13h44.73L280.06,12.42h-41.24l-12.33,32.8c-0.59-9.76-3.91-17.61-9.91-23.34c-6.57-6.28-16.23-9.46-28.7-9.46
			H131.7v109.69h42.32V85.86z M259.1,64.28l2.63,8.58h-5.24L259.1,64.28z M174.02,44.28h2.6c5.84,0,7.14,1.29,7.2,1.35
			c0.97,1.01,1.4,2.13,1.4,3.64c0,1.4-0.42,2.33-1.44,3.21c-0.43,0.37-2.31,1.58-8.35,1.58h-1.4V44.28z"/>
	</g>
</g>
<g>
	<g>
		<path class="st1" d="M209.97,73.93c5.93-5.55,8.9-13.26,8.9-23.12c0-9.6-2.72-16.99-8.16-22.19c-5.44-5.2-13.63-7.8-24.56-7.8
			h-50.18v97.69h30.32V82.26h16.53C194.98,82.26,204.03,79.48,209.97,73.93z M166.29,62.47V40.68h8.6c5.64,0,9.48,1.07,11.53,3.2
			c2.04,2.13,3.07,4.73,3.07,7.8c0,3.16-1.18,5.74-3.53,7.76c-2.35,2.02-6.44,3.03-12.26,3.03H166.29z M235.35,118.51l4.76-16.13
			h34.27l4.89,16.13h31.61l-36.71-97.69h-32.93l-36.72,97.69H235.35z M257.33,46.14l10.78,35.12h-21.45L257.33,46.14z
			 M102.34,205.09c-2.11-2.62-3.72-4.33-4.83-5.14c-1.64-1.2-4.26-2.4-7.86-3.6c4.49-1.02,8.02-2.31,10.6-3.87
			c4.04-2.44,7.22-5.63,9.53-9.56c2.31-3.93,3.47-8.61,3.47-14.03c0-6.22-1.51-11.49-4.53-15.83c-3.02-4.33-7-7.3-11.93-8.9
			s-12.06-2.4-21.39-2.4H25.1v97.69h30.32v-39.65h2.67c2.75,0,5.22,0.76,7.4,2.27c1.6,1.16,3.42,3.67,5.46,7.53l16.14,29.85h34.11
			l-14.62-28.31C105.86,209.74,104.45,207.72,102.34,205.09z M81.04,176.97c-1.27,1.64-2.9,2.67-4.9,3.06
			c-3.95,0.89-6.62,1.33-8,1.33H55.42v-19.86h13.26c5.51,0,9.26,0.84,11.26,2.53c2,1.69,3,4.11,3,7.26
			C82.94,173.43,82.31,175.32,81.04,176.97z M123.86,239.47h30.25v-97.69h-30.25V239.47z M234.78,179.83h-37.85v-17.06h44.31v-20.99
			h-74.63v97.69h30.32v-39.92h37.85V179.83z M413.33,193.23c-2.6-4.31-6.75-7.92-12.46-10.83c-5.71-2.91-15.16-5.79-28.35-8.63
			c-5.33-1.11-8.71-2.31-10.13-3.6c-1.47-1.24-2.2-2.64-2.2-4.2c0-2.13,0.89-3.94,2.67-5.43c1.78-1.49,4.42-2.23,7.93-2.23
			c4.26,0,7.61,1,10.03,3c2.42,2,4.01,5.2,4.76,9.6l28.45-1.67c-1.24-10.13-5.14-17.51-11.7-22.16c-6.55-4.64-16.07-6.96-28.55-6.96
			c-10.17,0-18.18,1.28-24.02,3.83c-5.84,2.56-10.22,6.06-13.13,10.53c-2.91,4.46-4.37,9.21-4.37,14.23
			c0,7.64,2.84,13.93,8.53,18.86c5.64,4.93,15.08,8.89,28.32,11.86c8.08,1.78,13.24,3.67,15.46,5.66c2.22,2,3.33,4.26,3.33,6.8
			c0,2.67-1.17,5.01-3.5,7.03s-5.65,3.03-9.96,3.03c-5.78,0-10.22-1.98-13.33-5.93c-1.91-2.44-3.18-6-3.8-10.66l-28.72,1.8
			c0.84,9.86,4.46,17.99,10.86,24.39c6.4,6.4,17.9,9.6,34.52,9.6c9.46,0,17.3-1.37,23.52-4.1c6.22-2.73,11.06-6.74,14.53-12.03
			c3.46-5.29,5.2-11.06,5.2-17.33C417.23,202.35,415.93,197.53,413.33,193.23z M262.83,141.78l-36.72,97.69h30.82l4.76-16.13h34.27
			l4.89,16.13h31.61l-36.71-97.69H262.83z M268.25,202.22l10.67-35.12l10.78,35.12H268.25z"/>
	</g>
</g>
<g>
	<g>
		<linearGradient id="SVGID_1_" gradientUnits="userSpaceOnUse" x1="256.0087" y1="276.3178" x2="256.0087" y2="-3.5689">
			<stop  offset="0" style="stop-color:#18853C"/>
			<stop  offset="1" style="stop-color:#5FB248"/>
		</linearGradient>
		<path class="st2" d="M212.97,68.93c5.93-5.55,8.9-13.26,8.9-23.12c0-9.6-2.72-16.99-8.16-22.19c-5.44-5.2-13.63-7.8-24.56-7.8
			h-50.18v97.69h30.32V77.26h16.53C197.98,77.26,207.03,74.48,212.97,68.93z M169.29,57.47V35.68h8.6c5.64,0,9.48,1.07,11.53,3.2
			c2.04,2.13,3.07,4.73,3.07,7.8c0,3.16-1.18,5.74-3.53,7.76s-6.44,3.03-12.26,3.03H169.29z M238.35,113.51l4.76-16.13h34.27
			l4.89,16.13h31.61l-36.71-97.69h-32.93l-36.72,97.69H238.35z M260.33,41.14l10.78,35.12h-21.45L260.33,41.14z M105.34,200.09
			c-2.11-2.62-3.72-4.33-4.83-5.14c-1.64-1.2-4.26-2.4-7.86-3.6c4.49-1.02,8.02-2.31,10.6-3.87c4.04-2.44,7.22-5.63,9.53-9.56
			c2.31-3.93,3.47-8.61,3.47-14.03c0-6.22-1.51-11.49-4.53-15.83c-3.02-4.33-7-7.3-11.93-8.9c-4.93-1.6-12.06-2.4-21.39-2.4H28.1
			v97.69h30.32v-39.65h2.67c2.75,0,5.22,0.76,7.4,2.27c1.6,1.16,3.42,3.67,5.46,7.53l16.14,29.85h34.11l-14.62-28.31
			C108.86,204.74,107.45,202.72,105.34,200.09z M84.04,171.97c-1.27,1.64-2.9,2.67-4.9,3.06c-3.95,0.89-6.62,1.33-8,1.33H58.42
			v-19.86h13.26c5.51,0,9.26,0.84,11.26,2.53c2,1.69,3,4.11,3,7.26C85.94,168.43,85.31,170.32,84.04,171.97z M126.86,234.47h30.25
			v-97.69h-30.25V234.47z M237.78,174.83h-37.85v-17.06h44.31v-20.99h-74.63v97.69h30.32v-39.92h37.85V174.83z M416.34,188.23
			c-2.6-4.31-6.75-7.92-12.46-10.83c-5.71-2.91-15.16-5.79-28.35-8.63c-5.33-1.11-8.71-2.31-10.13-3.6c-1.47-1.24-2.2-2.64-2.2-4.2
			c0-2.13,0.89-3.94,2.67-5.43c1.78-1.49,4.42-2.23,7.93-2.23c4.26,0,7.61,1,10.03,3c2.42,2,4.01,5.2,4.76,9.6l28.45-1.67
			c-1.24-10.13-5.14-17.51-11.69-22.16c-6.55-4.64-16.07-6.96-28.55-6.96c-10.17,0-18.18,1.28-24.02,3.83
			c-5.84,2.56-10.22,6.06-13.13,10.53c-2.91,4.46-4.36,9.21-4.36,14.23c0,7.64,2.84,13.93,8.53,18.86
			c5.64,4.93,15.08,8.89,28.32,11.86c8.08,1.78,13.24,3.67,15.46,5.66c2.22,2,3.33,4.26,3.33,6.8c0,2.67-1.17,5.01-3.5,7.03
			s-5.65,3.03-9.96,3.03c-5.78,0-10.22-1.98-13.33-5.93c-1.91-2.44-3.18-6-3.8-10.66l-28.72,1.8c0.84,9.86,4.46,17.99,10.86,24.39
			c6.4,6.4,17.9,9.6,34.52,9.6c9.46,0,17.3-1.37,23.52-4.1c6.22-2.73,11.06-6.74,14.53-12.03c3.46-5.29,5.2-11.06,5.2-17.33
			C420.23,197.35,418.93,192.53,416.34,188.23z M265.83,136.78l-36.72,97.69h30.82l4.76-16.13h34.27l4.89,16.13h31.61l-36.71-97.69
			H265.83z M271.25,197.22l10.67-35.12l10.78,35.12H271.25z"/>
	</g>
</g>
</svg>
