<?xml version="1.0" encoding="iso-8859-1"?>
<!-- Generator: Adobe Illustrator 19.0.0, SVG Export Plug-In . SVG Version: 6.00 Build 0)  -->
<svg version="1.1" id="Layer_1" xmlns="http://www.w3.org/2000/svg" xmlns:xlink="http://www.w3.org/1999/xlink" x="0px" y="0px"
	 viewBox="0 0 512 512" style="enable-background:new 0 0 512 512;" xml:space="preserve">
<circle style="fill:#C2D5D8;" cx="256" cy="256" r="256"/>
<path style="fill:#B7C9CC;" d="M488.444,363.252c-0.156-0.408-0.292-0.804-0.484-1.208c-0.228-0.684-0.5-1.368-0.828-2.048
	c-0.228-0.684-0.5-1.368-0.828-2.052c-0.228-0.68-0.5-1.368-0.828-2.048c-0.228-0.68-0.5-1.368-0.828-2.048
	c-0.228-0.684-0.5-1.368-0.828-2.048c-0.228-0.684-0.5-1.368-0.828-2.048c-0.22-0.68-0.492-1.36-0.82-2.032
	c-0.22-0.696-0.5-1.384-0.832-2.072c-0.224-0.684-0.5-1.368-0.828-2.048c-0.224-0.688-0.5-1.368-0.828-2.048
	c-0.224-0.688-0.5-1.372-0.828-2.052c-0.224-0.684-0.5-1.368-0.828-2.048c-0.224-0.684-0.5-1.372-0.828-2.052
	c-0.224-0.68-0.5-1.368-0.828-2.048c-0.224-0.684-0.5-1.368-0.824-2.048c-0.228-0.684-0.5-1.368-0.828-2.048
	c-0.228-0.688-0.5-1.368-0.828-2.048c-0.224-0.688-0.5-1.372-0.828-2.056c-0.228-0.684-0.5-1.368-0.828-2.048
	c-0.228-0.684-0.5-1.368-0.828-2.048c-0.228-0.688-0.5-1.368-0.828-2.048c-0.224-0.684-0.5-1.36-0.82-2.036
	c-0.228-0.688-0.5-1.38-0.836-2.064c-0.224-0.684-0.5-1.372-0.828-2.052c-0.224-0.68-0.5-1.368-0.828-2.048
	c-0.22-0.684-0.5-1.368-0.828-2.048c-0.22-0.684-0.5-1.368-0.828-2.048c-0.22-0.688-0.5-1.368-0.828-2.056
	c-0.22-0.684-0.5-1.368-0.828-2.048c-0.22-0.684-0.5-1.368-0.824-2.048c-0.224-0.688-0.5-1.368-0.828-2.048
	c-0.224-0.688-0.5-1.372-0.828-2.052c-0.224-0.684-0.5-1.368-0.828-2.048c-0.224-0.684-0.5-1.372-0.828-2.052
	c-0.224-0.68-0.5-1.368-0.828-2.048c-0.224-0.684-0.5-1.368-0.828-2.048c-0.224-0.68-0.492-1.356-0.82-2.032
	c-0.224-0.696-0.5-1.384-0.832-2.072c-0.228-0.68-0.5-1.368-0.828-2.048c-0.228-0.684-0.5-1.368-0.828-2.048
	c-0.224-0.684-0.5-1.368-0.828-2.048c-0.224-0.688-0.5-1.368-0.828-2.048c-0.224-0.688-0.5-1.372-0.828-2.052
	c-0.224-0.684-0.5-1.368-0.828-2.048c-0.224-0.684-0.5-1.372-0.828-2.052c-0.224-0.68-0.5-1.364-0.828-2.048
	c-0.22-0.684-0.5-1.368-0.828-2.052c-0.224-0.684-0.5-1.372-0.828-2.052c-0.224-0.68-0.5-1.368-0.828-2.048
	c-0.224-0.684-0.5-1.368-0.828-2.048c-0.224-0.684-0.5-1.368-0.828-2.048c-0.224-0.684-0.5-1.368-0.828-2.048
	c-0.22-0.68-0.492-1.356-0.82-2.032c-0.224-0.688-0.5-1.38-0.828-2.064c-0.228-0.684-0.5-1.368-0.828-2.048
	c-0.22-0.684-0.5-1.364-0.828-2.048c-0.22-0.684-0.5-1.368-0.828-2.052c-0.228-0.684-0.5-1.368-0.828-2.048
	c-0.228-0.684-0.5-1.368-0.828-2.048c-0.228-0.684-0.5-1.368-0.828-2.048c-0.228-0.684-0.5-1.368-0.828-2.048
	c-0.228-0.684-0.5-1.368-0.828-2.048c-0.228-0.684-0.5-1.368-0.828-2.048c-0.228-0.684-0.5-1.368-0.828-2.048
	c-0.228-0.684-0.5-1.368-0.828-2.048c-0.22-0.684-0.5-1.364-0.828-2.048c-0.22-0.684-0.5-1.368-0.828-2.052
	c-0.22-0.68-0.496-1.356-0.82-2.032c-0.228-0.692-0.5-1.38-0.832-2.064c-0.224-0.684-0.5-1.368-0.828-2.048
	c-0.224-0.684-0.5-1.368-0.828-2.048c-0.224-0.684-0.5-1.368-0.828-2.048c-0.224-0.684-0.5-1.368-0.828-2.048
	c-0.224-0.684-0.5-1.368-0.828-2.048c-0.224-0.684-0.5-1.368-0.824-2.048c-0.228-0.684-0.5-1.364-0.828-2.048
	c-0.224-0.684-0.5-1.368-0.828-2.052c-0.228-0.684-0.5-1.368-0.828-2.048c-0.228-0.684-0.5-1.368-0.828-2.048
	c-0.228-0.684-0.5-1.368-0.828-2.048c-0.228-0.684-0.5-1.368-0.828-2.048c-0.228-0.684-0.5-1.368-0.828-2.048
	c-0.224-0.68-0.5-1.356-0.82-2.032c-0.228-0.692-0.5-1.38-0.836-2.064c-0.224-0.684-0.5-1.368-0.828-2.048
	c-0.22-0.684-0.5-1.368-0.828-2.048c-0.22-0.684-0.5-1.364-0.828-2.048c-0.22-0.684-0.5-1.368-0.828-2.052
	c-0.22-0.684-0.5-1.368-0.828-2.048c-0.22-0.684-0.5-1.368-0.824-2.048c-0.224-0.684-0.5-1.368-0.828-2.048
	c-0.224-0.684-0.5-1.368-0.828-2.048c-0.224-0.684-0.5-1.368-0.828-2.048c-0.224-0.684-0.5-1.368-0.828-2.048
	c-0.224-0.684-0.5-1.368-0.828-2.048c-0.224-0.684-0.5-1.368-0.828-2.048c-0.224-0.684-0.5-1.364-0.828-2.048
	c-0.224-0.68-0.492-1.36-0.82-2.036c-0.224-0.688-0.5-1.38-0.832-2.064c-0.228-0.684-0.5-1.368-0.828-2.048
	c-0.224-0.684-0.5-1.368-0.828-2.048c-0.224-0.684-0.5-1.368-0.828-2.048c-0.224-0.684-0.5-1.368-0.828-2.048
	c-0.224-0.684-0.5-1.368-0.828-2.048c-1.084-3.38-3.54-6.692-7.04-10.184l-8.484-8.484l-31.108-31.112
	c-9.18-9.172-17.064-11.228-28.288,0l-25.452,25.456l-2.828,2.828l-0.936,0.944l-13.204,13.2l-2.828,2.828l-2.828,2.832
	L148.764,277.428l-19.796,79.196l-0.892,3.556c-0.484,1.932-0.18,3.5,0.664,4.572c0.104,0.812,0.396,1.496,0.828,2.048
	c0.104,0.812,0.396,1.496,0.828,2.048c0.104,0.812,0.392,1.5,0.828,2.052c0.104,0.812,0.392,1.496,0.828,2.048
	c0.104,0.812,0.392,1.496,0.828,2.052c0.104,0.804,0.392,1.492,0.824,2.04c0.104,0.812,0.396,1.5,0.828,2.06
	c0.104,0.812,0.396,1.5,0.828,2.052c0.104,0.812,0.396,1.5,0.828,2.048c0.104,0.812,0.396,1.5,0.828,2.052
	c0.104,0.812,0.396,1.496,0.828,2.048c0.104,0.812,0.396,1.496,0.828,2.052c0.104,0.812,0.396,1.492,0.828,2.048
	c0.104,0.812,0.396,1.496,0.828,2.048c0.104,0.812,0.396,1.496,0.828,2.048c0.104,0.812,0.396,1.5,0.828,2.048
	c0.104,0.812,0.396,1.5,0.828,2.052c0.104,0.812,0.392,1.496,0.828,2.052c0.104,0.812,0.392,1.496,0.828,2.048
	c0.104,0.812,0.392,1.5,0.828,2.052c0.104,0.808,0.392,1.492,0.824,2.044c0.1,0.812,0.392,1.5,0.828,2.056
	c0.1,0.812,0.392,1.5,0.828,2.048c0.1,0.812,0.392,1.5,0.828,2.052c0.1,0.812,0.392,1.496,0.828,2.048
	c0.1,0.812,0.392,1.496,0.828,2.052c0.1,0.812,0.392,1.492,0.828,2.048c0.1,0.812,0.392,1.496,0.828,2.048
	c0.1,0.812,0.392,1.496,0.828,2.056c0.1,0.812,0.392,1.492,0.828,2.048c0.1,0.812,0.392,1.496,0.828,2.048
	c0.1,0.812,0.392,1.496,0.828,2.048c0.1,0.812,0.392,1.5,0.828,2.048c0.1,0.812,0.392,1.5,0.828,2.052
	c0.1,0.812,0.392,1.496,0.828,2.048c0.1,0.808,0.392,1.492,0.82,2.044c0.104,0.812,0.392,1.5,0.828,2.06
	c0.104,0.808,0.392,1.496,0.828,2.048c0.104,0.812,0.392,1.5,0.828,2.052c0.104,0.812,0.392,1.5,0.828,2.048
	c0.104,0.812,0.392,1.5,0.828,2.052c0.1,0.812,0.392,1.496,0.828,2.048c0.1,0.812,0.392,1.496,0.828,2.052
	c0.1,0.812,0.392,1.492,0.828,2.048c0.1,0.812,0.392,1.496,0.828,2.048c0.1,0.812,0.392,1.496,0.828,2.048
	c0.1,0.812,0.392,1.5,0.828,2.048c0.1,0.812,0.392,1.5,0.828,2.052c0.1,0.812,0.392,1.496,0.828,2.052
	c0.1,0.812,0.392,1.5,0.828,2.048c0.1,0.812,0.392,1.492,0.824,2.048c0.104,0.812,0.392,1.5,0.824,2.056
	c0.108,0.812,0.396,1.496,0.828,2.048c0.108,0.812,0.396,1.5,0.828,2.052c0.108,0.808,0.396,1.496,0.828,2.048
	c0.108,0.812,0.396,1.496,0.828,2.052c0.104,0.808,0.396,1.492,0.828,2.048c0.104,0.812,0.396,1.492,0.828,2.048
	c0.104,0.812,0.396,1.5,0.828,2.052c0.104,0.812,0.396,1.496,0.828,2.052c0.104,0.812,0.396,1.492,0.828,2.048
	c0.104,0.812,0.396,1.496,0.828,2.048c0.104,0.812,0.396,1.496,0.828,2.048c0.104,0.812,0.392,1.5,0.828,2.048
	c0.104,0.812,0.392,1.5,0.828,2.052c0.104,0.812,0.392,1.496,0.828,2.048c0.088,0.684,0.336,1.26,0.664,1.764
	C206.872,508.352,231.004,512,256,512C359.08,512,447.872,451.048,488.444,363.252z"/>
<path style="fill:#E78244;" d="M302.52,123.684l24.424-24.428c11.232-11.228,20.952-9.384,30.132-0.208l39.596,39.596
	c9.168,9.168,9.372,17.268-1.848,28.492L370.4,191.564L302.52,123.684z"/>
<path style="fill:#D97A40;" d="M396.68,138.648l-8.488-8.488c9.172,9.168,9.38,17.268-1.844,28.492L361.92,183.08l8.484,8.488
	l24.424-24.428C406.056,155.916,405.848,147.82,396.68,138.648z"/>
<rect x="255.429" y="175.968" transform="matrix(0.707 0.7072 -0.7072 0.707 269.0337 -113.4441)" style="fill:#BF5347;" width="32" height="183.994"/>
<rect x="210.14" y="130.712" transform="matrix(0.707 0.7072 -0.7072 0.707 223.759 -94.675)" style="fill:#E66356;" width="32" height="183.994"/>
<rect x="232.779" y="153.37" transform="matrix(0.7071 0.7071 -0.7071 0.7071 246.3674 -104.0451)" style="fill:#CC584C;" width="31.996" height="183.998"/>
<path style="fill:#FFD599;" d="M216.64,328.356c-2.524-2.516-5.884-3.636-9.176-3.448c2.532-5.336,2.024-12.008-2.232-16.256
	c-5.468-5.468-14.416-5.384-19.888,0.084c5.468-5.468,5.292-14.156-0.176-19.624c-4.252-4.248-10.744-4.936-15.996-2.492
	c0.188-3.296-0.932-6.656-3.448-9.172c-4.688-4.688-12.28-4.688-16.968,0l-20.688,82.748c-1.076,4.268,1.556,6.888,5.82,5.824
	l82.752-20.688C221.328,340.64,221.328,333.044,216.64,328.356z"/>
<path style="fill:#F2CA91;" d="M216.64,328.356c-1.556-1.548-3.428-2.508-5.408-3.016c1.04,3.984,0.04,8.388-3.084,11.504
	l-79.2,19.8l-0.892,3.552c-1.072,4.268,1.556,6.892,5.828,5.824l82.748-20.688C221.328,340.64,221.328,333.044,216.64,328.356z"/>
<path style="fill:#242424;" d="M154.416,339.672c-5.416-5.416-13.14-6.988-19.984-4.892l-6.36,25.416
	c-1.068,4.268,1.56,6.892,5.828,5.824l25.412-6.352C161.408,352.816,159.836,345.092,154.416,339.672z"/>
<path style="fill:#1A1A1A;" d="M160.444,349.796l-30.672,7.668l-0.884,3.552c-1.076,4.268,1.556,6.892,5.82,5.824l25.408-6.356
	C161.188,357.008,161.296,353.308,160.444,349.796z"/>
<rect x="277.182" y="152.961" transform="matrix(0.7071 0.7071 -0.7071 0.7071 214.7148 -180.4496)" style="fill:#F5F5F5;" width="95.995" height="31.996"/>
<rect x="289.866" y="154.185" transform="matrix(0.7071 0.7071 -0.7071 0.7071 209.3978 -193.1615)" style="fill:#D97A40;" width="95.999" height="4"/>
<rect x="264.403" y="179.686" transform="matrix(0.7071 0.7071 -0.7071 0.7071 219.9714 -167.6862)" style="opacity:0.6;fill:#B34D42;enable-background:new    ;" width="95.995" height="4"/>
<g>
	
		<rect x="284.242" y="159.882" transform="matrix(0.7071 0.7071 -0.7071 0.7071 211.7788 -187.5159)" style="fill:#CCCCCC;" width="95.999" height="4"/>
	
		<rect x="270.064" y="173.988" transform="matrix(0.7071 0.7071 -0.7071 0.7071 217.6007 -173.3595)" style="fill:#CCCCCC;" width="95.999" height="4"/>
	<circle style="fill:#CCCCCC;" cx="347.56" cy="193.4" r="4"/>
	<circle style="fill:#CCCCCC;" cx="336.24" cy="182.1" r="4"/>
	<circle style="fill:#CCCCCC;" cx="324.92" cy="170.788" r="4"/>
	<circle style="fill:#CCCCCC;" cx="313.64" cy="159.472" r="4"/>
	<circle style="fill:#CCCCCC;" cx="302.32" cy="148.16" r="4"/>
</g>
<g>
</g>
<g>
</g>
<g>
</g>
<g>
</g>
<g>
</g>
<g>
</g>
<g>
</g>
<g>
</g>
<g>
</g>
<g>
</g>
<g>
</g>
<g>
</g>
<g>
</g>
<g>
</g>
<g>
</g>
</svg>
