<svg id="svg2" xmlns="http://www.w3.org/2000/svg" viewBox="0 0 598.66 174.58"><defs><style>.cls-1{fill:#63bce7;}.cls-2{fill:#f46275;}.cls-3{fill:#6377e7;}.cls-4{fill:#63e2e7;}.cls-5{fill:#9e9e9e;}.cls-6{fill:#f43075;}.cls-7{fill:#707070;}.cls-8{fill:#f48875;}.cls-9{fill:#cecece;}.cls-10{fill:#f8af23;}.cls-11{fill:#f87023;}.cls-12{fill:#3f3679;}.cls-13{fill:#f8d323;}.cls-14{font-size:44.14px;fill:#210024;font-family:Montserrat-Bold, Montserrat;font-weight:700;}.cls-15{letter-spacing:-0.01em;}</style></defs><path class="cls-1" d="M113.85,185.12h92.41v5.79H113.85Z" transform="translate(-12.48 -26.09)"/><path class="cls-1" d="M117.21,179.34H202.9v5.78H117.21Z" transform="translate(-12.48 -26.09)"/><rect class="cls-1" x="100.56" y="96.86" width="94.03" height="7.5" rx="2.77"/><path class="cls-1" d="M121.67,123l38.39-31.79L198.44,123Z" transform="translate(-12.48 -26.09)"/><path class="cls-2" d="M99.06,179.34H86.3v-2.19a3.92,3.92,0,0,1,3.91-3.92h4.93a3.93,3.93,0,0,1,3.92,3.92v2.19Z" transform="translate(-12.48 -26.09)"/><path class="cls-2" d="M86.29,130.46H99.06v2.19a3.92,3.92,0,0,1-3.92,3.91H90.21a3.92,3.92,0,0,1-3.92-3.91v-2.19Z" transform="translate(-12.48 -26.09)"/><path class="cls-1" d="M22.29,123,60.67,91.17,99.06,123Z" transform="translate(-12.48 -26.09)"/><path class="cls-3" d="M60.67,91.17,22.29,123H34.43L66.74,96.2Z" transform="translate(-12.48 -26.09)"/><path class="cls-4" d="M160.06,91.17,198.44,123H186.3L154,96.2Z" transform="translate(-12.48 -26.09)"/><rect class="cls-1" x="1.18" y="96.86" width="94.03" height="7.5" rx="2.77"/><path class="cls-3" d="M25.8,127.69v-2A2.77,2.77,0,0,1,28.57,123H16.42a2.77,2.77,0,0,0-2.76,2.76v2a2.77,2.77,0,0,0,2.76,2.77H28.57A2.78,2.78,0,0,1,25.8,127.69Z" transform="translate(-12.48 -26.09)"/><path class="cls-4" d="M194.93,127.69v-2a2.77,2.77,0,0,0-2.77-2.76H204.3a2.77,2.77,0,0,1,2.77,2.76v2a2.78,2.78,0,0,1-2.77,2.77H192.16A2.78,2.78,0,0,0,194.93,127.69Z" transform="translate(-12.48 -26.09)"/><path class="cls-2" d="M54.29,130.46H67.05v2.19a3.91,3.91,0,0,1-3.91,3.91H58.21a3.91,3.91,0,0,1-3.92-3.91v-2.19Z" transform="translate(-12.48 -26.09)"/><path class="cls-2" d="M67.05,179.34H54.29v-2.19a3.92,3.92,0,0,1,3.92-3.92h4.93a3.92,3.92,0,0,1,3.91,3.92v2.19Z" transform="translate(-12.48 -26.09)"/><path class="cls-5" d="M57.32,136.56h6.95v36.67H57.32Z" transform="translate(-12.48 -26.09)"/><path class="cls-6" d="M22.29,130.46H35.05v2.19a3.91,3.91,0,0,1-3.92,3.91H26.2a3.91,3.91,0,0,1-3.91-3.91v-2.19Z" transform="translate(-12.48 -26.09)"/><path class="cls-6" d="M35.05,179.34H22.29v-2.19a3.92,3.92,0,0,1,3.91-3.92h4.93a3.93,3.93,0,0,1,3.92,3.92v2.19Z" transform="translate(-12.48 -26.09)"/><path class="cls-7" d="M25.31,136.56h7v36.67H25.31Z" transform="translate(-12.48 -26.09)"/><path class="cls-5" d="M89.32,136.56h7v36.67h-7Z" transform="translate(-12.48 -26.09)"/><path class="cls-1" d="M17.83,179.34h85.69v5.78H17.83Z" transform="translate(-12.48 -26.09)"/><path class="cls-3" d="M17.83,179.34H30v5.78H17.83Z" transform="translate(-12.48 -26.09)"/><path class="cls-4" d="M190.76,179.34H202.9v5.78H190.76Z" transform="translate(-12.48 -26.09)"/><path class="cls-1" d="M14.47,185.12h92.41v5.79H14.47Z" transform="translate(-12.48 -26.09)"/><path class="cls-3" d="M14.47,185.12H26.61v5.79H14.47Z" transform="translate(-12.48 -26.09)"/><path class="cls-4" d="M194.12,185.12h12.14v5.79H194.12Z" transform="translate(-12.48 -26.09)"/><path class="cls-8" d="M198.45,179.34H185.68v-2.19a3.93,3.93,0,0,1,3.92-3.92h4.93a3.93,3.93,0,0,1,3.92,3.92v2.19Z" transform="translate(-12.48 -26.09)"/><path class="cls-8" d="M185.68,130.46h12.76v2.19a3.91,3.91,0,0,1-3.91,3.91H189.6a3.92,3.92,0,0,1-3.92-3.91v-2.19Z" transform="translate(-12.48 -26.09)"/><path class="cls-2" d="M153.68,130.46h12.76v2.19a3.91,3.91,0,0,1-3.92,3.91h-4.93a3.91,3.91,0,0,1-3.91-3.91v-2.19Z" transform="translate(-12.48 -26.09)"/><path class="cls-2" d="M166.44,179.34H153.68v-2.19a3.92,3.92,0,0,1,3.91-3.92h4.93a3.92,3.92,0,0,1,3.92,3.92v2.19Z" transform="translate(-12.48 -26.09)"/><path class="cls-5" d="M156.71,136.56h6.94v36.67h-6.94Z" transform="translate(-12.48 -26.09)"/><path class="cls-2" d="M121.67,130.46h12.76v2.19a3.91,3.91,0,0,1-3.91,3.91h-4.93a3.92,3.92,0,0,1-3.92-3.91v-2.19Z" transform="translate(-12.48 -26.09)"/><path class="cls-2" d="M134.44,179.34H121.67v-2.19a3.93,3.93,0,0,1,3.92-3.92h4.93a3.93,3.93,0,0,1,3.92,3.92v2.19Z" transform="translate(-12.48 -26.09)"/><path class="cls-5" d="M124.7,136.56h7v36.67h-7Z" transform="translate(-12.48 -26.09)"/><path class="cls-9" d="M188.71,136.56h6.95v36.67h-6.95Z" transform="translate(-12.48 -26.09)"/><circle class="cls-10" cx="48.19" cy="28.96" r="27.77"/><path class="cls-11" d="M45,55.05A27.78,27.78,0,0,1,66.75,28a27.77,27.77,0,1,0,0,54.2A27.78,27.78,0,0,1,45,55.05Z" transform="translate(-12.48 -26.09)"/><path class="cls-12" d="M72.43,55V63.1a2.19,2.19,0,0,1-.7,1.64,2.3,2.3,0,0,1-1.68.69H63v5.69a2.21,2.21,0,0,1-.7,1.65,2.24,2.24,0,0,1-1.63.68,2.3,2.3,0,0,1-1.7-.68,2.24,2.24,0,0,1-.69-1.65V65.38h-7a2.24,2.24,0,0,1-1.64-.68,2.21,2.21,0,0,1-.7-1.65,2.33,2.33,0,0,1,2.31-2.33h16.5V57.37H51.24a2.27,2.27,0,0,1-1.65-.67A2.23,2.23,0,0,1,48.91,55V47a2.32,2.32,0,0,1,2.31-2.33h7V39a2.3,2.3,0,0,1,2.27-2.33h.14A2.32,2.32,0,0,1,63,39v5.69H70.1a2.3,2.3,0,0,1,1.68.69A2.27,2.27,0,0,1,72.49,47a2.43,2.43,0,0,1-2.39,2.39H53.63v3.33H70.05a2.32,2.32,0,0,1,1.68.69,2.19,2.19,0,0,1,.7,1.63Z" transform="translate(-12.48 -26.09)"/><circle class="cls-10" cx="147.58" cy="28.96" r="27.77"/><path class="cls-13" d="M160.06,27.28A27.54,27.54,0,0,0,154,28a27.77,27.77,0,0,1,0,54.2,27.77,27.77,0,1,0,6.07-54.87Z" transform="translate(-12.48 -26.09)"/><path class="cls-12" d="M171.82,55V63.1a2.19,2.19,0,0,1-.7,1.64,2.32,2.32,0,0,1-1.68.69h-7.1v5.69A2.36,2.36,0,0,1,160,73.45a2.3,2.3,0,0,1-1.7-.68,2.24,2.24,0,0,1-.69-1.65V65.38h-7.05a2.24,2.24,0,0,1-1.63-.68,2.21,2.21,0,0,1-.7-1.65,2.33,2.33,0,0,1,2.31-2.33h16.5V57.37H150.63A2.26,2.26,0,0,1,149,56.7,2.23,2.23,0,0,1,148.3,55V47a2.32,2.32,0,0,1,2.31-2.33h7V39a2.3,2.3,0,0,1,2.27-2.33H160a2.32,2.32,0,0,1,2.3,2.33v5.69h7.16a2.3,2.3,0,0,1,1.68.69,2.22,2.22,0,0,1,.7,1.64,2.41,2.41,0,0,1-2.38,2.39H153V52.7h16.43a2.33,2.33,0,0,1,1.67.7,2.19,2.19,0,0,1,.71,1.63Z" transform="translate(-12.48 -26.09)"/><path class="cls-2" d="M118.12,42.62H83.41a.86.86,0,0,0-.86.86V66.61a.87.87,0,0,0,.86.87h34.71a.85.85,0,0,1,.86.86h0V72.5a.86.86,0,0,0,.86.87.89.89,0,0,0,.62-.25l17.46-17.47a.86.86,0,0,0,0-1.22h0L120.46,37a.86.86,0,0,0-1.22,0,.87.87,0,0,0-.25.62v4.16a.88.88,0,0,1-.86.87Z" transform="translate(-12.48 -26.09)"/><path class="cls-12" d="M199.62,132.65v-1h4.69a3.94,3.94,0,0,0,3.94-3.94v-2a4,4,0,0,0-3.94-3.94h-5.44L160.81,90.27a1.18,1.18,0,0,0-1.5,0l-38.06,31.51h-5.44a4,4,0,0,0-3.94,3.94v2a3.94,3.94,0,0,0,3.94,3.94h4.69v1a5.1,5.1,0,0,0,3,4.65v35.2a5.09,5.09,0,0,0-3,4.65v1h-3.29a1.17,1.17,0,0,0-1.17,1.18V184h-2.18a1.17,1.17,0,0,0-1.18,1.17v4.61h-4.63v-4.61a1.17,1.17,0,0,0-1.17-1.17h-2.19v-4.61a1.17,1.17,0,0,0-1.17-1.18h-3.29v-1a5.06,5.06,0,0,0-2.78-4.53V137.18a5.08,5.08,0,0,0,2.78-4.53v-1h4.69a3.93,3.93,0,0,0,3.94-3.94v-2a3.94,3.94,0,0,0-3.94-3.94H99.48L61.42,90.27a1.18,1.18,0,0,0-1.5,0L21.86,121.78H16.42a4,4,0,0,0-3.94,3.94v2a3.94,3.94,0,0,0,3.94,3.94h4.69v1a5.1,5.1,0,0,0,3,4.65v35.2a5.09,5.09,0,0,0-3,4.65v1H17.83a1.18,1.18,0,0,0-1.18,1.18V184H14.47a1.17,1.17,0,0,0-1.18,1.17h0v5.79a1.17,1.17,0,0,0,1.18,1.17H206.26a1.17,1.17,0,0,0,1.18-1.17v-5.79a1.17,1.17,0,0,0-1.18-1.17h-2.18v-4.61a1.18,1.18,0,0,0-1.18-1.18h-3.28v-1a5.07,5.07,0,0,0-2.79-4.53V137.18a5.09,5.09,0,0,0,2.79-4.53Zm-2.35,0a2.74,2.74,0,0,1-2.74,2.74H189.6a2.74,2.74,0,0,1-2.74-2.74v-1h10.41Zm-2.79,39.4h-4.59V137.74h4.6Zm-10,5.1v1h-16.9v-1a5.06,5.06,0,0,0-2.78-4.53V137.18a5.08,5.08,0,0,0,2.78-4.53v-1h16.9v1a5.1,5.1,0,0,0,3,4.65v35.2a5.09,5.09,0,0,0-3,4.65Zm-48.9,1v-1a5.07,5.07,0,0,0-2.79-4.53V137.18a5.09,5.09,0,0,0,2.79-4.53v-1H152.5v1a5.1,5.1,0,0,0,3,4.65v35.2a5.09,5.09,0,0,0-3,4.65v1Zm-9.73-40.42h4.6v34.31h-4.6Zm32,0h4.6v34.31h-4.6Zm4.64-2.35H157.6a2.75,2.75,0,0,1-2.75-2.74v-1h10.42v1a2.75,2.75,0,0,1-2.75,2.74Zm-7.67,41.76a2.74,2.74,0,0,1,2.75-2.74h4.92a2.74,2.74,0,0,1,2.75,2.74v1H154.85Zm5.21-84.45,35.13,29.08H124.93Zm-45.84,35v-2a1.59,1.59,0,0,1,1.59-1.59h88.5a1.59,1.59,0,0,1,1.59,1.59v2a1.59,1.59,0,0,1-1.59,1.59h-88.5a1.59,1.59,0,0,1-1.59-1.59Zm8.63,3.94h10.41v1a2.74,2.74,0,0,1-2.74,2.75h-4.93a2.75,2.75,0,0,1-2.74-2.75Zm0,45.52a2.74,2.74,0,0,1,2.74-2.74h4.93a2.73,2.73,0,0,1,2.74,2.74v1H122.85Zm-25,1H87.47v-1a2.74,2.74,0,0,1,2.74-2.74h4.93a2.74,2.74,0,0,1,2.74,2.74Zm-29.66,0v-1a5.08,5.08,0,0,0-2.78-4.53V137.18a5.1,5.1,0,0,0,2.78-4.53v-1H85.12v1a5.1,5.1,0,0,0,3,4.65v35.2a5.09,5.09,0,0,0-3,4.65v1Zm-32,0v-1a5.09,5.09,0,0,0-2.79-4.53V137.18a5.11,5.11,0,0,0,2.79-4.53v-1H53.12v1a5.1,5.1,0,0,0,3,4.65v35.2a5.09,5.09,0,0,0-3,4.65v1Zm-9.74-40.42h4.6v34.31h-4.6Zm32,0h4.59v34.31H58.5Zm4.64-2.35H58.21a2.74,2.74,0,0,1-2.74-2.74v-1H65.88v1A2.74,2.74,0,0,1,63.14,135.39Zm-7.67,41.76a2.73,2.73,0,0,1,2.74-2.74h4.93a2.74,2.74,0,0,1,2.74,2.74v1H55.47Zm39.63-5.1H90.5V137.74h4.6Zm2.78-39.4a2.74,2.74,0,0,1-2.74,2.74H90.21a2.74,2.74,0,0,1-2.74-2.74v-1H97.88ZM60.67,92.7,95.8,121.78H25.55Zm-45.84,35v-2a1.6,1.6,0,0,1,1.59-1.59h88.5a1.59,1.59,0,0,1,1.59,1.59v2a1.59,1.59,0,0,1-1.59,1.59H16.42A1.59,1.59,0,0,1,14.83,127.69Zm8.63,3.94H33.87v1a2.74,2.74,0,0,1-2.74,2.74H26.2a2.74,2.74,0,0,1-2.74-2.74Zm0,45.52a2.74,2.74,0,0,1,2.74-2.74h4.93a2.74,2.74,0,0,1,2.74,2.74v1H23.46ZM19,180.51h83.34V184H19Zm-1.62,9.22H15.64V186.3H105.7v3.43Zm187.71,0H115V186.3h90.06ZM201.73,184H118.39v-3.44h83.34Zm-4.46-5.79H186.86v-1a2.74,2.74,0,0,1,2.74-2.74h4.93a2.74,2.74,0,0,1,2.74,2.74Z" transform="translate(-12.48 -26.09)"/><path class="cls-12" d="M60.67,84A28.87,28.87,0,0,0,86.21,68.66h31.6v3.85A2,2,0,0,0,121.29,74L132.23,63a28.95,28.95,0,1,0,0-15.94L121.29,36.14a2,2,0,0,0-3.48,1.45v3.85H86.22A28.95,28.95,0,1,0,60.67,84Zm99.39-55.55a26.6,26.6,0,1,1-25.9,32.64l4.6-4.6a2,2,0,0,0,0-2.88h0l-4.6-4.6a26.72,26.72,0,0,1,25.9-20.55ZM118.12,43.79a2,2,0,0,0,2-2V38.34l16.71,16.71L120.16,71.76V68.35a2,2,0,0,0-2-2H83.73V43.79ZM60.67,28.45a26.53,26.53,0,0,1,22.85,13h-.11a2,2,0,0,0-2,2V66.61a2,2,0,0,0,2,2h.11a26.6,26.6,0,1,1-22.85-40.2Z" transform="translate(-12.48 -26.09)"/><path class="cls-12" d="M31.49,198.33H17.38a1.18,1.18,0,0,0,0,2.35H31.49a1.18,1.18,0,0,0,0-2.35Z" transform="translate(-12.48 -26.09)"/><path class="cls-12" d="M203.35,198.33h-14.1a1.18,1.18,0,1,0,0,2.35h14.1a1.18,1.18,0,1,0,0-2.35Z" transform="translate(-12.48 -26.09)"/><path class="cls-12" d="M181.25,198.33H39.48a1.18,1.18,0,1,0,0,2.35H181.25a1.18,1.18,0,1,0,0-2.35Z" transform="translate(-12.48 -26.09)"/><text class="cls-14" transform="translate(204.66 74.82)">TRANSFERÊNCIA<tspan x="72.02" y="52.97">BAN</tspan><tspan class="cls-15" x="175.26" y="52.97">C</tspan><tspan x="207" y="52.97">ÁRIA</tspan></text></svg>